PathFileType	4	(X/Y/Z)	/Users/itak/Documents/Research/Walk-IL/dataset/trc/00202_00008.trc
DataRate	CameraRate	NumFrames	NumMarkers	Units	OrigDataRate	OrigDataStartFrame	OrigNumFrames
100.000000	100.000000	4	53	mm	100.000000	311	498
Frame#	Time	RPSI			LPSI			L3			STRN			T10			C7			CLAV			RBAK			LBAK			LSHO			LUPA			LAEL			LAOL			LWTS			LWPS			LFRA			LIFD			LHPS			LHTS			RSHO			RUPA			RAEL			RAOL			RWTS			RWPS			RFRA			RIFD			RHTS			RHPS			RBHD			LFHD			RFHD			LBHD			LHIP			RHIP			RASI			LASI			LKNE			LTHI			LANK			LTIP			LTOE			LMT1			LMT5			LHEE			RKNE			RTHI			RANK			RTIP			RTOE			RMT1			RMT5			RHEE			
		X1	Y1	Z1	X2	Y2	Z2	X3	Y3	Z3	X4	Y4	Z4	X5	Y5	Z5	X6	Y6	Z6	X7	Y7	Z7	X8	Y8	Z8	X9	Y9	Z9	X10	Y10	Z10	X11	Y11	Z11	X12	Y12	Z12	X13	Y13	Z13	X14	Y14	Z14	X15	Y15	Z15	X16	Y16	Z16	X17	Y17	Z17	X18	Y18	Z18	X19	Y19	Z19	X20	Y20	Z20	X21	Y21	Z21	X22	Y22	Z22	X23	Y23	Z23	X24	Y24	Z24	X25	Y25	Z25	X26	Y26	Z26	X27	Y27	Z27	X28	Y28	Z28	X29	Y29	Z29	X30	Y30	Z30	X31	Y31	Z31	X32	Y32	Z32	X33	Y33	Z33	X34	Y34	Z34	X35	Y35	Z35	X36	Y36	Z36	X37	Y37	Z37	X38	Y38	Z38	X39	Y39	Z39	X40	Y40	Z40	X41	Y41	Z41	X42	Y42	Z42	X43	Y43	Z43	X44	Y44	Z44	X45	Y45	Z45	X46	Y46	Z46	X47	Y47	Z47	X48	Y48	Z48	X49	Y49	Z49	X50	Y50	Z50	X51	Y51	Z51	X52	Y52	Z52	X53	Y53	Z53	

312	3.11	-102.0666885375977	1034.673583984375	34.0431022644043	-18.57394027709961	1038.690063476562	-58.42441177368164	-62.78779602050781	1073.455932617188	-12.31050109863281	115.9841384887695	1293.6669921875	175.1175384521484	-84.37570190429688	1227.94921875	-49.70989227294922	-41.43438339233398	1499.653442382812	-6.366874217987061	95.67613220214844	1406.383911132812	149.9271697998047	-158.3858795166016	1317.042236328125	16.02045440673828	31.98893737792969	1482.20947265625	-78.03061676025391	142.6142730712891	1476.874267578125	-70.90256500244141	183.8886108398438	1346.14013671875	-142.0673370361328	212.1290435791016	1129.50390625	-141.1483154296875	126.6248245239258	1110.058715820312	-118.4258728027344	282.0989379882812	896.569580078125	-51.24544906616211	247.1685028076172	877.5748901367188	-135.7668151855469	234.7333526611328	1020.166870117188	-144.6514892578125	279.8785400390625	713.24658203125	-30.28779792785645	261.9423522949219	808.0172729492188	-121.2788238525391	304.5778198242188	818.245849609375	-62.44007873535156	-133.2696075439453	1472.843383789062	161.46435546875	-194.5630950927734	1403.623413085938	188.9393005371094	-241.6033325195312	1115.301025390625	206.6300659179688	-163.0435485839844	1109.009765625	146.3102874755859	-132.6325988769531	895.5670166015625	312.978759765625	-214.3236541748047	874.1326904296875	282.2500915527344	-238.7832489013672	1043.437744140625	239.3951263427734	-97.09095001220703	707.6004638671875	313.9886474609375	-118.6724319458008	803.3206176757812	340.4908447265625	-191.3777160644531	793.7738647460938	305.6834411621094	-83.79430389404297	1639.480712890625	85.26194763183594	103.2281799316406	1732.175170898438	138.2667694091797	6.246621608734131	1705.040283203125	218.8150939941406	10.4824047088623	1674.295776367188	-5.368975639343262	136.0099029541016	978.9453125	-76.74329376220703	-66.28734588623047	998.2744140625	232.9428100585938	29.39092826843262	1027.329833984375	245.082275390625	195.1337280273438	1021.533874511719	47.4111442565918	165.6609954833984	480.7370300292969	-84.36590576171875	174.1326141357422	627.6904907226562	-80.05120086669922	-164.5951690673828	215.3209991455078	-325.98486328125	22.00906944274902	341.5279235839844	-211.0662841796875	-82.70950317382812	43.84710693359375	-241.1010131835938	-127.530876159668	80.65686798095703	-213.7064666748047	-112.6580657958984	115.2575531005859	-332.9669494628906	-214.3355865478516	262.7044067382812	-278.2730407714844	72.13589477539062	511.3053588867188	270.9532165527344	6.336620807647705	778.3306274414062	294.0751342773438	96.99945831298828	33.28509140014648	184.6851348876953	109.7776870727539	392.6420288085938	270.8107299804688	217.5618591308594	57.82202529907227	370.9844665527344	237.5851287841797	46.58229446411133	306.6967163085938	113.2349700927734	41.77253341674805	300.2696838378906	140.2444763183594	31.45327949523926	112.3366546630859	
313	3.12	-96.59600830078125	1035.961547851562	41.36550521850586	-12.4471378326416	1039.767578125	-50.52349090576172	-57.02891540527344	1074.593627929688	-4.666497230529785	120.9419174194336	1294.848876953125	183.4378204345703	-78.42920684814453	1229.3564453125	-42.30759811401367	-35.19930267333984	1501.05126953125	1.184831738471985	100.936393737793	1407.634521484375	158.1990661621094	-152.6190490722656	1318.579467773438	23.03766441345215	38.62700653076172	1483.44921875	-70.06453704833984	149.2450408935547	1477.951782226562	-62.40761947631836	190.5757598876953	1346.875732421875	-132.9684906005859	217.8389129638672	1130.123168945312	-131.2084503173828	132.0063629150391	1111.219116210938	-109.1028289794922	283.6688842773438	895.1583862304688	-42.95522308349609	249.6260528564453	877.95654296875	-128.2040863037109	239.0982055664062	1020.7353515625	-135.3736114501953	276.5008239746094	711.1253051757812	-24.88274955749512	262.6249084472656	807.853271484375	-114.4986419677734	304.4066162109375	816.1423950195312	-54.75657272338867	-128.0827026367188	1474.407470703125	168.5356292724609	-189.5288391113281	1405.234008789062	195.8246307373047	-236.7012329101562	1116.580932617188	214.3203735351562	-158.0152435302734	1110.32470703125	154.2630004882812	-125.0956039428711	899.7824096679688	323.9403381347656	-206.0434722900391	876.3947143554688	292.6751098632812	-233.2347564697266	1044.8359375	247.7657928466797	-85.9937744140625	712.8512573242188	328.6915893554688	-110.0143280029297	808.48583984375	353.25927734375	-181.845703125	796.869384765625	317.6363525390625	-78.09943389892578	1640.698974609375	92.81964874267578	108.6089019775391	1733.54638671875	146.5754547119141	11.32515048980713	1706.31005859375	226.7337341308594	16.44675254821777	1675.6181640625	2.576385736465454	142.1607818603516	979.4053955078125	-67.89646911621094	-61.85992431640625	999.4196166992188	240.5048980712891	33.78259658813477	1028.517944335938	253.0332794189453	200.7510833740234	1022.863647460938	56.2951545715332	181.6509399414062	480.7575073242188	-67.8779296875	187.0491790771484	628.0909423828125	-66.00231170654297	-149.707763671875	220.8086700439453	-313.5694885253906	37.86209106445312	343.7134704589844	-195.8997650146484	-67.67476654052734	47.74284362792969	-228.5603942871094	-113.3533782958984	85.56095123291016	-201.4134674072266	-97.57620239257812	121.0096664428711	-320.3221435546875	-199.9061889648438	268.109375	-266.3404846191406	73.85713958740234	511.0320739746094	274.0023193359375	9.893442153930664	778.4290161132812	300.1224670410156	97.05539703369141	33.28011322021484	184.6997985839844	110.98486328125	392.2940368652344	272.966552734375	217.8518218994141	57.28308486938477	371.0965576171875	237.7575988769531	46.24954986572266	306.5833129882812	113.3132858276367	41.7813606262207	300.2855834960938	140.1907653808594	31.43757629394531	112.2889404296875	
314	3.13	-91.05728912353516	1037.208129882812	48.45542907714844	-6.276520729064941	1040.89453125	-42.80757141113281	-51.32930755615234	1075.729370117188	2.73171067237854	125.7925643920898	1296.010864257812	191.6210479736328	-72.56905364990234	1230.7705078125	-35.02599334716797	-29.05808448791504	1502.432250976562	8.647592544555664	106.1200408935547	1408.874877929688	166.3321380615234	-146.9633178710938	1320.151000976562	29.95903396606445	45.15531921386719	1484.673095703125	-62.20339965820312	155.7478790283203	1478.9951171875	-54.05934143066406	197.0996551513672	1347.5986328125	-124.0767669677734	223.5101165771484	1130.755126953125	-121.519660949707	137.361328125	1112.331298828125	-100.1048202514648	285.3551940917969	894.0269775390625	-34.53371047973633	252.5101776123047	878.4520263671875	-120.5584945678711	243.6110076904297	1021.344604492188	-126.2091979980469	273.4890747070312	709.4099731445312	-19.18512153625488	263.8423156738281	807.8878173828125	-107.5305480957031	304.5184936523438	814.400390625	-46.80500793457031	-122.9153518676758	1475.994506835938	175.5315704345703	-184.5509948730469	1406.883422851562	202.6466217041016	-231.8766326904297	1117.909301757812	221.9190826416016	-153.0914306640625	1111.6962890625	162.0808715820312	-117.667839050293	904.1061401367188	334.7171630859375	-197.8189544677734	878.7608642578125	302.938720703125	-227.7452545166016	1046.292236328125	256.0229187011719	-74.98758697509766	718.3406982421875	343.1856689453125	-101.4911956787109	813.8128051757812	365.8191223144531	-172.3839416503906	800.1046142578125	329.4037475585938	-72.405517578125	1641.926513671875	100.2899551391602	114.0092163085938	1734.862548828125	154.7937164306641	16.42514228820801	1707.550170898438	234.5646667480469	22.41021156311035	1676.929565429688	10.43478202819824	148.4722900390625	980.021728515625	-59.11790084838867	-57.69139099121094	1000.4716796875	247.797607421875	37.86408615112305	1029.6767578125	260.8232116699219	206.2561340332031	1024.2197265625	65.21849060058594	197.3173065185547	481.12451171875	-51.04796600341797	199.7510681152344	628.75537109375	-51.7332878112793	-134.134521484375	225.079833984375	-300.5488586425781	53.81418991088867	345.6901550292969	-180.2387847900391	-51.40723037719727	51.79375839233398	-214.5321807861328	-98.11255645751953	90.05029296875	-187.8722991943359	-81.30804443359375	125.7883758544922	-306.54443359375	-185.0604705810547	272.3028259277344	-254.0713806152344	75.23101806640625	510.7356872558594	276.8276062011719	13.07164764404297	778.455078125	305.9344787597656	97.07231903076172	33.2623291015625	184.6938171386719	111.9154586791992	391.9629821777344	274.953369140625	218.0679779052734	56.78661346435547	371.184326171875	237.8733215332031	45.95685577392578	306.4630737304688	113.3290557861328	41.76686859130859	300.2926635742188	140.1243591308594	31.42724990844727	112.2391967773438	
315	3.14	-85.44155120849609	1038.406494140625	55.30371856689453	-0.03682954236865044	1042.063842773438	-35.27707672119141	-45.66018295288086	1076.861206054688	9.890308380126953	130.5331726074219	1297.171630859375	199.6979217529297	-66.76142883300781	1232.186767578125	-27.86220550537109	-23.00566101074219	1503.796508789062	16.0166187286377	111.222412109375	1410.118041992188	174.3428192138672	-141.4039154052734	1321.745971679688	36.77344131469727	51.5823860168457	1485.887329101562	-54.44170379638672	162.1299285888672	1480.022827148438	-45.84013366699219	203.4726867675781	1348.338256835938	-115.3973693847656	229.0982360839844	1131.416625976562	-112.115608215332	142.6538238525391	1113.428833007812	-91.42840576171875	287.1944274902344	893.2044677734375	-26.00442695617676	255.7793731689453	879.04736328125	-112.8209686279297	248.2269897460938	1021.997009277344	-117.18701171875	271.0077819824219	708.1279907226562	-13.1222505569458	265.600341796875	808.10791015625	-100.346305847168	304.9877624511719	813.057373046875	-38.60338592529297	-117.7822723388672	1477.611572265625	182.4342651367188	-179.6393585205078	1408.577026367188	209.3877716064453	-227.1107635498047	1119.29443359375	229.442626953125	-148.2484436035156	1113.131958007812	169.779541015625	-110.3398132324219	908.512451171875	345.283203125	-189.6648559570312	881.2368774414062	313.0487365722656	-222.2966461181641	1047.818237304688	264.1851196289062	-64.12642669677734	724.015380859375	357.3623046875	-93.08636474609375	819.253662109375	378.1071472167969	-163.01953125	803.4718017578125	340.9674072265625	-66.71987915039062	1643.173828125	107.6796417236328	119.4330291748047	1736.121704101562	162.9255065917969	21.55248260498047	1708.76220703125	242.3138580322266	28.36880683898926	1678.237915039062	18.21044158935547	154.9859771728516	980.8135375976562	-50.36220550537109	-53.80092239379883	1001.419494628906	254.8219146728516	41.59719848632812	1030.807983398438	268.4837646484375	211.6344299316406	1025.604125976562	74.24238586425781	212.6078033447266	481.8470458984375	-33.93024063110352	212.2190551757812	629.6841430664062	-37.26748657226562	-117.9081115722656	228.0765686035156	-286.9497680664062	69.81632232666016	347.4245910644531	-164.1516723632812	-34.04601287841797	55.76373672485352	-199.0671081542969	-81.89543914794922	93.98240661621094	-173.1533203125	-63.9553108215332	129.5070037841797	-291.6925964355469	-169.7950592041016	275.2196960449219	-241.4800262451172	76.28519439697266	510.4196472167969	279.4554138183594	15.87000942230225	778.3980712890625	311.5303955078125	97.05422210693359	33.23744964599609	184.6741485595703	112.6042404174805	391.6499633789062	276.7954406738281	218.2283325195312	56.31961059570312	371.2525024414062	237.9422912597656	45.69961547851562	306.3428344726562	113.2970733642578	41.73017501831055	300.3015441894531	140.0441284179688	31.42427635192871	112.1898651123047	
